<?xml version="1.0" encoding="UTF-8"?>
<svg xmlns="http://www.w3.org/2000/svg" version="1.1" viewBox="0 0 200 200">
  <!-- Generator: Adobe Illustrator 28.7.1, SVG Export Plug-In . SVG Version: 1.2.0 Build 142)  -->
  <g>
    <g id="Capa_1">
      <g>
        <path d="M183.53,100.69c0,43.29-36.52,78.39-81.57,78.39S21.67,138.17,20.4,100.69c-.71-20.96,9.32-36.83,12.72-42.05,15.69-24.12,43.26-37.03,68.85-36.34,37.75,1.02,81.57,31.93,81.57,78.39Z" style="fill: none; stroke: #ff5093; stroke-miterlimit: 10; stroke-width: 5px;"/>
        <path d="M171.73,139.88c.57-1.54,1.27-3.88,1.45-6.79.09-1.36.61-12.23-7.12-18.87-5.87-5.04-12.96-4.62-17.27-4.36-7.64.46-13.16,3.71-17.93,6.52-2,1.18-6.45,3.96-11.21,8.7-3.74,3.73-7.97,7.95-10.59,14.47-.97,2.4-6.63,16.56,1.05,26.43,4.73,6.08,12.01,7.02,13.71,7.24,7.75,1,16.96-2.01,17.58-6.16.18-1.18-.98-3.01-3.3-6.68-2.6-4.13-4.63-6.47-4.79-6.35-.19.14,3.14,3.44,2.91,7.88-.04.83-.27,2.76-1.51,4.43-3.21,4.32-10.35,3.06-11.25,2.9-5.21-.92-10.24-4.69-12.31-10.14-1.74-4.59-.77-8.72,0-11.95.67-2.83,2.32-7.97,8.09-14.85,4.5-5.36,12.74-15.18,26.37-17.74,4.61-.87,13-2.44,19.34,2.9,3.43,2.89,4.93,6.68,5.63,9.05.23,1.73.38,4.33-.18,7.39-.23,1.25-.65,3.48-1.95,5.99-.28.54-.45.74-2.27,3.51-.91,1.38-1.65,2.51-2.13,3.25-.84,1.36-1.75,2.26-2.39,2.8-.73.62-1.39,1.02-1.82,1.28-.86.52-1.44.87-2.29,1.12-1.35.39-2.47.27-3,.21-1.04-.12-1.88-.43-2.49-.71-30.98-32.54-61.97-65.08-92.95-97.62-1.03-1.88-4.37-8.51-1.76-13.76.88-1.77,2.29-3.09,4.38-5.04,3.93-3.68,7.07-5.17,7-5.31-.13-.25-11.9,3.63-22.62,13.72-9.27,8.72-13.6,18.18-13.24,18.46.33.25,3.77-4.45,9.8-8.16,1.05-.65,2.62-1.52,4.76-1.77.56-.07,2.76-.28,5.34.72,2.4.94,3.55,2.33,6.86,5.81,1.82,1.92,3.78,3.71,5.55,5.69,8.07,9.01,16.8,17.37,25.17,26.08,15.23,15.85,22.84,23.78,23.73,24.58,0,0,13.6,12.3,34.41,36.8.39.46,1.15,1.39,1.41,2.76.23,1.23-.03,2.27-.35,3.48-.45,1.69-1.13,3.06-1.58,3.8-2.63,4.29-9.15,6.38-9.1,6.52.05.12,5.44-.49,11.72-4.52,9.65-6.19,15.77-16.82,15.84-16.93,0,0,0,0,0,0" style="fill: #1d1d1b; stroke: #ff5093; stroke-miterlimit: 10;"/>
        <path d="M145.09,86.93c6.42-.81,11.29-.01,12.83.27,4.01.73,8.88,1.62,13.54,5.43,1.8,1.47,4.55,3.78,6.07,7.88,1.91,5.17.63,9.85.26,11.13-2.71,9.38-12.27,13.39-15.29,14.66-5.89,2.47-10.96,2.46-17.67,2.44-7.54-.02-13.01-1.33-14.24-1.63-8.21-2.03-13.36-5.34-13.45-5.16-.11.22,7.22,6.11,17.93,8.96,3.84,1.02,19.34,4.9,33.75-3.53,3.67-2.15,8.46-4.89,11.34-10.86,3.01-6.25,3.16-14.42-.53-20.91-3.63-6.4-9.59-8.7-14.5-10.59-1.8-.69-9.61-3.44-21.89-2.17-15.59,1.61-26.51,9.02-31.12,12.22-5.7,3.96-21.94,15.61-28.22,36.93-1.85,6.3-4.88,16.58-.26,27.16.87,2,3.79,8.08,10.28,12.49,8.36,5.69,17.19,4.9,23.47,4.34,9.58-.85,16.74-4.41,16.61-4.89-.2-.74-17.58,8.44-32.43,1.36-1.27-.6-9.96-4.92-13.98-14.94-3.56-8.9-1.32-17.05.26-22.81,3.48-12.64,10.9-20.39,15.82-25.53,10.71-11.18,21.85-15.86,27.42-18.19,5.88-2.47,10.08-3.59,13.98-4.07Z" style="fill: #1d1d1b; stroke: #ff5093; stroke-miterlimit: 10;"/>
        <path d="M101.93,23.93c-.07,51.37-.14,102.74-.21,154.11.84-.05,1.67-.09,2.51-.14.04-51.37.09-102.74.13-154.11l-2.42.14Z" style="fill: #1d1d1b; stroke: #ff5093; stroke-miterlimit: 10;"/>
        <path d="M67.96,60.72c-.31,1.55-.39,2.88-.4,3.8l-3.82-4.89c1.25-5.07,3.98-13.2,10.28-20.91,4.29-5.25,8.68-8.4,10.81-9.91,3-2.12,5.84-3.69,8.83-4.89,3.13-1.25,5.04-1.54,6.06-1.65,2.35-.26,4.08,0,5.68.2,6.75.87,7.87.55,11.07,1.05,11.63,1.81,19.65,8.69,19.65,8.69,7.41,6.36,10.17,14.2,11.21,17.24,3.73,10.95,1.85,20.62.53,27.43-.46,2.36-1.96,9.38-5.8,17.38-2.6,5.41-3.74,6.03-8.57,15.21-.11.2-.39.82-.87,1.72-.69,1.31-1.75,3.14-3.35,5.34-5.39,7.45-9.02,12.46-14.97,14.29-.53.16-4.4,1.35-5.16.1-.74-1.22,1.92-4.09,5.1-7.78,2.74-3.18,6.46-7.68,10.72-13.4,0,0,3.06-3.74,5.98-8.69,1.95-3.31,3.07-5.95,4.22-8.69,1.69-4.04,3.89-9.27,5.1-16.29.37-2.17,1.02-6.03.88-10.73-.14-4.73-.53-17.02-9.62-26.48-6.1-6.35-13.23-8.31-15.7-8.89-5.13-1.19-9.36-.77-11.47-.54-2.92.32-6.68.73-11.01,3.04-4.89,2.62-7.69,6.17-8.6,7.41-1.54,2.09-2.37,3.9-3.55,6.49-2.42,5.3-3.59,9.98-4,9.87-.24-.07.27-1.64-.4-3.71-.28-.87-.79-2.47-1.76-2.72-2.04-.52-5.9,5.08-7.08,10.91Z" style="fill: #1d1d1b; stroke: #ff5093; stroke-miterlimit: 10;"/>
        <path d="M85.24,83.13s.86.73,1.67,2.08c.19.32.29.53.46.86,1.6,3.22,2.09,3.73,1.96,4.73-.03.27-.13.99-.66,1.47-.8.72-2.02.38-4.09-.05-1.41-.29-2.85-.48-4.26-.77-3.68-.74-6.59-1.15-8.09-1.36-.97-.13-2.3-.33-3.6-.45-6.55-.64-11.46-.13-12.66,0-2.2.24-5.83.67-10.37,2.17-1.88.62-4.53,1.51-7.65,3.35-1.79,1.05-4.72,2.78-7.38,5.79-1.18,1.34-6.28,7.13-6.15,15.48.08,4.93,1.92,8.37,3.96,12.13,1.71,3.16,5.32,9.64,12.57,13.4,2.66,1.38,5.2,1.85,10.28,2.81,4.36.82,11.75,1.85,21.18,1.27,4.1-.25,7.45-.45,11.95-1.54,7.36-1.78,13.17-4.81,16.96-6.79,3.93-2.05,3.78-2.32,7.56-4.16,5.43-2.65,7.03-2.71,8.79-4.8,2.83-3.37,3.35-8.75,1.93-9.6-1.18-.71-3.56,1.82-6.42,4.34,0,0-7.35,6.49-19.87,12.4-9.58,4.53-18.15,4.95-24.26,5.25-4.53.22-15.11.64-25.67-3.8-2.59-1.09-5.14-2.46-7.65-4.71-1.97-1.76-5.66-5.08-6.94-10.77-1.2-5.31.38-9.66.97-11.22.3-.78,1.54-3.95,4.75-7.33,4.83-5.11,10.47-6.87,14.77-8.15,10.66-3.18,19.67-1.96,24.44-1.27,2.88.42,8.08,1.2,14.15,3.71,6.03,2.49,9.04,3.74,11.78,5.79,1.16.87,2.67,2.12,3.16,1.72.68-.55-.96-3.86-2.02-5.7-1.88-3.25-3.8-5.09-7.21-8.42-5.65-5.51-8.3-7.93-8.35-7.88Z" style="fill: #1d1d1b; stroke: #ff5093; stroke-miterlimit: 10;"/>
        <path d="M63.74,61.27c.61,1.97,2.35,2.2,3.03,3.67.43.92,0,1.39-.26,3.67-.17,1.41-.11,2.75,0,5.43.2,4.72.9,8.43,1.05,9.23.22,1.12,1.27,6.39,4.09,12.9.71,1.64,2.45,5.49,5.41,10.05,3.27,5.05,6.46,8.53,8.04,10.18,2.25,2.34,5.01,5.21,9.1,7.88,4.12,2.69,5.74,3.6,5.74,3.6,2.6,1.47,4.76,2.47,4.61,2.92-.08.26-.88.2-1.31.17-2.21-.16-3.82-1.18-4.49-1.59-5.07-3.18-2.6-1.24-5.27-3.19-4.35-3.17-6.53-4.75-8.9-6.99-.95-.9-5.19-4.98-9.43-11.41-1.03-1.56-2.91-4.56-4.81-8.55-1.27-2.67-2.15-4.96-2.97-7.06-.91-2.34-1.65-4.27-2.31-6.45-.44-1.47-1.78-6.13-2.18-12.36-.42-6.6.34-12.84.66-12.83.07,0,.05.27.2.75Z" style="fill: #1d1d1b; stroke: #ff5093; stroke-miterlimit: 10;"/>
        <path d="M161.84,20.92c8.8,37.64-8.5,77.53-36.42,102.88-10.52,9.71-22.49,17.55-34.89,24.57-4.13,2.37-8.38,4.53-12.8,6.38-17.5,7.53-37.82,8-55.92,2.51,23.9,4.95,46.34,1.07,66.95-11.92,21.02-12.31,40.78-27.63,54.35-48.1,14.75-22.34,22.67-49.38,18.72-76.33h0Z" style="fill: #ff5093;"/>
        <path d="M189.92,57.87c-26.9-12.72-61.32-5.96-77.58,19.9-5.18,8.21-8.07,17.85-8.65,27.75-1.1-14.95,4.93-30.59,16.01-40.91,18.79-17.87,48.38-20.28,70.22-6.75h0Z" style="fill: #ff5093;"/>
        <path d="M7.44,108.11" style="fill: none; stroke: #ff5093; stroke-miterlimit: 10;"/>
        <path d="M5.86,112.86c3.85,7.09,8.99,12.55,15.78,16.62,1.91,1.28,3.9,2.1,5.89,3.4,2.19,1.44,4.18,3.16,6.11,4.86,0,0,.2.16.2.16.04.03-.04-.02-.06-.01-.36-.15-1.06-.07-1.42.26-.43.32-.73,1.02-.55,1.47-.08-.4-.55-1.12-.7-1.45.66.85,2.33.58,2.59-.68.08-.36,0-.67-.07-.86-.02-.02.05.16.05.15,1.54,3.8,3.54,7.19,6.32,10.29-3.91-1.99-7.02-5.52-9.17-9.33-.56-1.33,1-2.67,2.24-1.83.47.38.23.2.42.4.97,1.2,2.51,3.16.91,4.5-.89.7-2.03.28-2.78-.28-2.09-1.46-4.07-3.02-6.22-4.32-1.86-1.15-4.1-2.13-5.94-3.44-6.95-4.46-12.45-11.69-13.61-19.91h0Z" style="fill: #ff5093;"/>
        <path d="M113.23,134.72c21.54,3.34,40.3,1.47,58.85-10.68-14.85,15.49-39.4,18.47-58.85,10.68h0Z" style="fill: #ff5093;"/>
      </g>
    </g>
  </g>
</svg>